pose11
version=1
nRows=4
nColumns=213
inDegrees=yes
endheader
time	platform_rx	platform_ry	platform_rz	platform_ty	pelvis_tilt	pelvis_list	pelvis_rotation	pelvis_tx	pelvis_ty	pelvis_tz	hip_flexion_r	hip_adduction_r	hip_rotation_r	knee_angle_r	knee_angle_r_beta	ankle_angle_r	subtalar_angle_r	mtp_angle_r	hip_flexion_l	hip_adduction_l	hip_rotation_l	knee_angle_l	knee_angle_l_beta	ankle_angle_l	subtalar_angle_l	mtp_angle_l	lumbar_extension	lumbar_bending	lumbar_rotation	arm_flex_r	arm_add_r	arm_rot_r	elbow_flex_r	pro_sup_r	wrist_flex_r	wrist_dev_r	arm_flex_l	arm_add_l	arm_rot_l	elbow_flex_l	pro_sup_l	wrist_flex_l	wrist_dev_l	platform_rx_u	platform_ry_u	platform_rz_u	platform_ty_u	pelvis_tilt_u	pelvis_list_u	pelvis_rotation_u	pelvis_tx_u	pelvis_ty_u	pelvis_tz_u	hip_flexion_r_u	hip_adduction_r_u	hip_rotation_r_u	knee_angle_r_u	knee_angle_r_beta_u	ankle_angle_r_u	subtalar_angle_r_u	mtp_angle_r_u	hip_flexion_l_u	hip_adduction_l_u	hip_rotation_l_u	knee_angle_l_u	knee_angle_l_beta_u	ankle_angle_l_u	subtalar_angle_l_u	mtp_angle_l_u	lumbar_extension_u	lumbar_bending_u	lumbar_rotation_u	arm_flex_r_u	arm_add_r_u	arm_rot_r_u	elbow_flex_r_u	pro_sup_r_u	wrist_flex_r_u	wrist_dev_r_u	arm_flex_l_u	arm_add_l_u	arm_rot_l_u	elbow_flex_l_u	pro_sup_l_u	wrist_flex_l_u	wrist_dev_l_u	addbrev_r.activation	addlong_r.activation	addlong_r.fiber_length	addmagDist_r.activation	addmagIsch_r.activation	addmagIsch_r.fiber_length	addmagMid_r.activation	addmagProx_r.activation	bflh_r.activation	bflh_r.fiber_length	bfsh_r.activation	edl_r.activation	edl_r.fiber_length	ehl_r.activation	ehl_r.fiber_length	fdl_r.activation	fdl_r.fiber_length	fhl_r.activation	fhl_r.fiber_length	gaslat_r.activation	gaslat_r.fiber_length	gasmed_r.activation	gasmed_r.fiber_length	glmax1_r.activation	glmax2_r.activation	glmax3_r.activation	glmed1_r.activation	glmed2_r.activation	glmed3_r.activation	glmin1_r.activation	glmin2_r.activation	glmin3_r.activation	glmin3_r.fiber_length	grac_r.activation	iliacus_r.activation	perbrev_r.activation	perbrev_r.fiber_length	perlong_r.activation	perlong_r.fiber_length	piri_r.activation	piri_r.fiber_length	psoas_r.activation	recfem_r.activation	recfem_r.fiber_length	sart_r.activation	semimem_r.activation	semimem_r.fiber_length	semiten_r.activation	semiten_r.fiber_length	soleus_r.activation	soleus_r.fiber_length	tfl_r.activation	tfl_r.fiber_length	tibant_r.activation	tibant_r.fiber_length	tibpost_r.activation	tibpost_r.fiber_length	vasint_r.activation	vasint_r.fiber_length	vaslat_r.activation	vaslat_r.fiber_length	vasmed_r.activation	vasmed_r.fiber_length	addbrev_l.activation	addlong_l.activation	addlong_l.fiber_length	addmagDist_l.activation	addmagIsch_l.activation	addmagIsch_l.fiber_length	addmagMid_l.activation	addmagProx_l.activation	bflh_l.activation	bflh_l.fiber_length	bfsh_l.activation	edl_l.activation	edl_l.fiber_length	ehl_l.activation	ehl_l.fiber_length	fdl_l.activation	fdl_l.fiber_length	fhl_l.activation	fhl_l.fiber_length	gaslat_l.activation	gaslat_l.fiber_length	gasmed_l.activation	gasmed_l.fiber_length	glmax1_l.activation	glmax2_l.activation	glmax3_l.activation	glmed1_l.activation	glmed2_l.activation	glmed3_l.activation	glmin1_l.activation	glmin2_l.activation	glmin3_l.activation	glmin3_l.fiber_length	grac_l.activation	iliacus_l.activation	perbrev_l.activation	perbrev_l.fiber_length	perlong_l.activation	perlong_l.fiber_length	piri_l.activation	piri_l.fiber_length	psoas_l.activation	recfem_l.activation	recfem_l.fiber_length	sart_l.activation	semimem_l.activation	semimem_l.fiber_length	semiten_l.activation	semiten_l.fiber_length	soleus_l.activation	soleus_l.fiber_length	tfl_l.activation	tfl_l.fiber_length	tibant_l.activation	tibant_l.fiber_length	tibpost_l.activation	tibpost_l.fiber_length	vasint_l.activation	vasint_l.fiber_length	vaslat_l.activation	vaslat_l.fiber_length	vasmed_l.activation	vasmed_l.fiber_length
      0.00794012	     20.00000000	     -0.00000000	     -0.00000000	      0.25000000	    -17.48711757	     -0.00597065	     -0.00553576	      0.03213667	      0.79496798	      0.00002191	     57.53834618	    -14.27892884	    -10.06949093	     61.68824316	     61.68824316	     17.06153646	     -0.86593354	      0.00000000	     57.53764702	    -14.31518553	    -10.04346780	     61.69216407	     61.69216407	     17.24657774	      0.00000000	      0.00000000	     -0.80205310	      0.00546965	      0.00558557	     64.15114427	     -0.00639366	     89.87375447	      0.12912673	      0.10738248	      0.00000000	      0.00000000	     64.15150713	     -0.00730290	     89.87454338	      0.12975613	      0.10755406	      0.00000000	     -0.00000000	      0.00000000	     -0.00000000	      0.00000000	      0.00000000	    164.03891881	     -1.30201943	     -1.16660527	      0.03625864	      0.24230412	      0.00479987	   -203.42325173	     -2.42643103	    -17.96943153	    -73.53891487	    -73.53891487	   -946.37824460	   -194.24060353	     -0.00000000	   -203.54477243	    -10.37480969	    -12.20074705	    -72.68493086	    -72.68493086	   -906.00940792	      0.00000000	      0.00000000	   -200.47167354	      1.16288854	      1.19707703	     37.47806951	     -1.58489870	     -0.91264225	      4.64846308	     -0.69099827	      0.00000000	     -0.00000000	     37.56653781	     -1.80671444	     -0.74640304	      4.80176012	     -0.64922145	      0.00000000	     -0.00000000	      0.01000000	      0.01000000	      0.09467801	      0.01000000	      0.01000000	      0.18851826	      0.01000000	      0.01000000	      0.01000000	      0.11391045	      0.01000000	      0.01000000	      0.05802506	      0.01000000	      0.06637914	      0.01000000	      0.04720731	      0.01000000	      0.05504879	      0.01000000	      0.06160212	      0.01000000	      0.05285658	      0.01000000	      0.01000000	      0.01000000	      0.01000000	      0.01000000	      0.01000000	      0.01000000	      0.01000000	      0.01000000	      0.04311997	      0.01000000	      0.01000000	      0.01000000	      0.04974609	      0.01000000	      0.05616280	      0.01000000	      0.02762984	      0.01000000	      0.01000000	      0.06298444	      0.01000000	      0.01000000	      0.07620946	      0.01000000	      0.22555714	      0.01000000	      0.05708732	      0.01000000	      0.05583619	      0.01000000	      0.05336869	      0.01000000	      0.04140050	      0.01000000	      0.12234319	      0.01000000	      0.12012998	      0.01000000	      0.11819318	      0.01000000	      0.01000000	      0.09472012	      0.01000000	      0.01000000	      0.18853354	      0.01000000	      0.01000000	      0.01000000	      0.11391506	      0.01000000	      0.01000000	      0.05810739	      0.01000000	      0.06629475	      0.01000000	      0.04713076	      0.01000000	      0.05496421	      0.01000000	      0.06162214	      0.01000000	      0.05288170	      0.01000000	      0.01000000	      0.01000000	      0.01000000	      0.01000000	      0.01000000	      0.01000000	      0.01000000	      0.01000000	      0.04309253	      0.01000000	      0.01000000	      0.01000000	      0.05008716	      0.01000000	      0.05642267	      0.01000000	      0.02761411	      0.01000000	      0.01000000	      0.06298018	      0.01000000	      0.01000000	      0.07621131	      0.01000000	      0.22556424	      0.01000000	      0.05711561	      0.01000000	      0.05579871	      0.01000000	      0.05313517	      0.01000000	      0.04129830	      0.01000000	      0.12234502	      0.01000000	      0.12013166	      0.01000000	      0.11819481
      0.00915056	     20.00000000	     -0.00000000	     -0.00000000	      0.25000000	    -17.27365570	     -0.00760807	     -0.00699094	      0.03218446	      0.79528325	      0.00002795	     57.27278791	    -14.28204715	    -10.09309758	     61.59079048	     61.59079048	     15.85374535	     -1.11183519	      0.00000000	     57.27194176	    -14.32831516	    -10.05980308	     61.59577228	     61.59577228	     16.08959383	      0.00000000	      0.00000000	     -1.06276921	      0.00692128	      0.00708691	     64.19979697	     -0.00845331	     89.87256197	      0.13516594	      0.10652235	      0.00000000	     -0.00000000	     64.20027398	     -0.00964861	     89.87356540	      0.13599310	      0.10674781	      0.00000000	     -0.00000000	      0.00000000	     -0.00000000	      0.00000000	      0.00000000	    188.64845233	     -1.39966178	     -1.23297709	      0.04273479	      0.27859031	      0.00517263	   -235.40451028	     -2.72135345	    -21.05598409	    -87.60102425	    -87.60102425	  -1047.30760837	   -211.54096649	     -0.00000000	   -235.52448020	    -11.29089246	    -14.82835472	    -86.70646347	    -86.70646347	  -1003.87435348	      0.00000000	      0.00000000	   -230.27583701	      1.23142595	      1.27932039	     42.89920229	     -1.81805989	     -1.05878892	      5.32947707	     -0.72396099	      0.00000000	     -0.00000000	     42.99926904	     -2.06871148	     -0.87070782	      5.50279119	     -0.67674488	      0.00000000	     -0.00000000	      0.01000000	      0.01000000	      0.09475354	      0.01000000	      0.01000000	      0.18827771	      0.01000000	      0.01000000	      0.01000000	      0.11374661	      0.01000000	      0.01000000	      0.05868276	      0.01000000	      0.06716379	      0.01000000	      0.04718973	      0.01000000	      0.05494045	      0.01000000	      0.06116479	      0.01000000	      0.05255671	      0.01000000	      0.01000000	      0.01000000	      0.01000000	      0.01000000	      0.01000000	      0.01000000	      0.01000000	      0.01000000	      0.04306428	      0.01000000	      0.01000000	      0.01000000	      0.04955872	      0.01000000	      0.05595837	      0.01000000	      0.02756891	      0.01000000	      0.01000000	      0.06312406	      0.01000000	      0.01000000	      0.07608976	      0.01000000	      0.22538016	      0.01000000	      0.05660988	      0.01000000	      0.05608221	      0.01000000	      0.05427543	      0.01000000	      0.04135977	      0.01000000	      0.12229514	      0.01000000	      0.12008562	      0.01000000	      0.11815028	      0.01000000	      0.01000000	      0.09480808	      0.01000000	      0.01000000	      0.18829779	      0.01000000	      0.01000000	      0.01000000	      0.11375283	      0.01000000	      0.01000000	      0.05879227	      0.01000000	      0.06705101	      0.01000000	      0.04707646	      0.01000000	      0.05482208	      0.01000000	      0.06118333	      0.01000000	      0.05257845	      0.01000000	      0.01000000	      0.01000000	      0.01000000	      0.01000000	      0.01000000	      0.01000000	      0.01000000	      0.01000000	      0.04302861	      0.01000000	      0.01000000	      0.01000000	      0.05000862	      0.01000000	      0.05631111	      0.01000000	      0.02754783	      0.01000000	      0.01000000	      0.06311830	      0.01000000	      0.01000000	      0.07609233	      0.01000000	      0.22538949	      0.01000000	      0.05664723	      0.01000000	      0.05603287	      0.01000000	      0.05396747	      0.01000000	      0.04121164	      0.01000000	      0.12229754	      0.01000000	      0.12008783	      0.01000000	      0.11815243
      0.01013578	     20.00000000	     -0.00000000	     -0.00000000	      0.25000000	    -17.07795066	     -0.00901894	     -0.00822378	      0.03222923	      0.79557223	      0.00003317	     57.02794354	    -14.28483717	    -10.11511783	     61.49862640	     61.49862640	     14.78512285	     -1.32619689	      0.00000000	     57.02698158	    -14.33975291	    -10.07553908	     61.50449736	     61.50449736	     15.06473838	      0.00000000	      0.00000000	     -1.30153582	      0.00815410	      0.00837278	     64.24421527	     -0.01033777	     89.87145814	      0.14068878	      0.10580819	      0.00000000	     -0.00000000	     64.24479532	     -0.01179106	     89.87265526	      0.14169435	      0.10608225	      0.00000000	     -0.00000000	      0.00000000	     -0.00000000	     -0.00000000	      0.00000000	    208.62472348	     -1.46179227	     -1.26662875	      0.04817083	      0.30802715	      0.00541048	   -261.66469208	     -2.93886424	    -23.65866975	    -99.56858690	    -99.56858690	  -1120.68142698	   -223.25297450	     -0.00000000	   -261.77925537	    -11.90828376	    -17.14220806	    -98.66131512	    -98.66131512	  -1075.35729517	      0.00000000	      0.00000000	   -254.39998870	      1.26839751	      1.32829181	     47.26255899	     -2.00735666	     -1.18279671	      5.88158397	     -0.72107459	      0.00000000	     -0.00000000	     47.37157692	     -2.28018710	     -0.97784075	      6.07032354	     -0.66967646	      0.00000000	     -0.00000000	      0.01000000	      0.01000000	      0.09482457	      0.01000000	      0.01000000	      0.18805594	      0.01000000	      0.01000000	      0.01000000	      0.11359404	      0.01000000	      0.01000000	      0.05927102	      0.01000000	      0.06786528	      0.01000000	      0.04717169	      0.01000000	      0.05483754	      0.01000000	      0.06085393	      0.01000000	      0.05234106	      0.01000000	      0.01000000	      0.01000000	      0.01000000	      0.01000000	      0.01000000	      0.01000000	      0.01000000	      0.01000000	      0.04301242	      0.01000000	      0.01000000	      0.01000000	      0.04939146	      0.01000000	      0.05577299	      0.01000000	      0.02751138	      0.01000000	      0.01000000	      0.06325412	      0.01000000	      0.01000000	      0.07597705	      0.01000000	      0.22521742	      0.01000000	      0.05617627	      0.01000000	      0.05631095	      0.01000000	      0.05507901	      0.01000000	      0.04131938	      0.01000000	      0.12224901	      0.01000000	      0.12004294	      0.01000000	      0.11810913	      0.01000000	      0.01000000	      0.09489016	      0.01000000	      0.01000000	      0.18807963	      0.01000000	      0.01000000	      0.01000000	      0.11360169	      0.01000000	      0.01000000	      0.05940501	      0.01000000	      0.06772603	      0.01000000	      0.04702217	      0.01000000	      0.05468952	      0.01000000	      0.06087027	      0.01000000	      0.05236066	      0.01000000	      0.01000000	      0.01000000	      0.01000000	      0.01000000	      0.01000000	      0.01000000	      0.01000000	      0.01000000	      0.04296963	      0.01000000	      0.01000000	      0.01000000	      0.04993635	      0.01000000	      0.05620733	      0.01000000	      0.02748572	      0.01000000	      0.01000000	      0.06324702	      0.01000000	      0.01000000	      0.07598029	      0.01000000	      0.22522874	      0.01000000	      0.05622183	      0.01000000	      0.05625125	      0.01000000	      0.05471308	      0.01000000	      0.04112910	      0.01000000	      0.12225190	      0.01000000	      0.12004561	      0.01000000	      0.11811171
      0.01112100	     20.00000000	     -0.00000000	     -0.00000000	      0.25000000	    -16.86258624	     -0.01048314	     -0.00948008	      0.03227943	      0.79589017	      0.00003859	     56.75711649	    -14.28783105	    -10.13974236	     61.39444837	     61.39444837	     13.64822362	     -1.55098361	      0.00000000	     56.75604658	    -14.35173959	    -10.09363402	     61.40121141	     61.40121141	     13.97316348	      0.00000000	      0.00000000	     -1.56401108	      0.00941491	      0.00969820	     64.29291039	     -0.01240857	     89.87022960	      0.14675473	      0.10511133	      0.00000000	     -0.00000000	     64.29360208	     -0.01414112	     89.87163665	      0.14795355	      0.10543801	      0.00000000	     -0.00000000	      0.00000000	     -0.00000000	      0.00000000	      0.00000000	    228.55719504	     -1.50792718	     -1.28051971	      0.05376101	      0.33738448	      0.00558635	   -288.15187523	     -3.13474918	    -26.34248605	   -111.98558278	   -111.98558278	  -1185.86068811	   -232.67947382	     -0.00000000	   -288.25566902	    -12.40452971	    -19.61760951	   -111.08531233	   -111.08531233	  -1139.28205191	      0.00000000	      0.00000000	   -278.40375917	      1.28829638	      1.35948951	     51.58082918	     -2.19631475	     -1.31202394	      6.43205074	     -0.68837133	      0.00000000	     -0.00000000	     51.69836615	     -2.49017991	     -1.09098795	      6.63545012	     -0.63301083	      0.00000000	     -0.00000000	      0.01000000	      0.01000000	      0.09490418	      0.01000000	      0.01000000	      0.18780668	      0.01000000	      0.01000000	      0.01000000	      0.11342441	      0.01000000	      0.01000000	      0.05990195	      0.01000000	      0.06861862	      0.01000000	      0.04714981	      0.01000000	      0.05472252	      0.01000000	      0.06057841	      0.01000000	      0.05214472	      0.01000000	      0.01000000	      0.01000000	      0.01000000	      0.01000000	      0.01000000	      0.01000000	      0.01000000	      0.01000000	      0.04295472	      0.01000000	      0.01000000	      0.01000000	      0.04921255	      0.01000000	      0.05557249	      0.01000000	      0.02744691	      0.01000000	      0.01000000	      0.06339838	      0.01000000	      0.01000000	      0.07585121	      0.01000000	      0.22503823	      0.01000000	      0.05570269	      0.01000000	      0.05656514	      0.01000000	      0.05594006	      0.01000000	      0.04127242	      0.01000000	      0.12219625	      0.01000000	      0.11999404	      0.01000000	      0.11806209	      0.01000000	      0.01000000	      0.09498025	      0.01000000	      0.01000000	      0.18783523	      0.01000000	      0.01000000	      0.01000000	      0.11343361	      0.01000000	      0.01000000	      0.06006314	      0.01000000	      0.06845009	      0.01000000	      0.04695879	      0.01000000	      0.05454359	      0.01000000	      0.06059297	      0.01000000	      0.05216273	      0.01000000	      0.01000000	      0.01000000	      0.01000000	      0.01000000	      0.01000000	      0.01000000	      0.01000000	      0.01000000	      0.04290449	      0.01000000	      0.01000000	      0.01000000	      0.04985700	      0.01000000	      0.05609294	      0.01000000	      0.02741652	      0.01000000	      0.01000000	      0.06338985	      0.01000000	      0.01000000	      0.07585518	      0.01000000	      0.22505168	      0.01000000	      0.05575730	      0.01000000	      0.05649456	      0.01000000	      0.05550798	      0.01000000	      0.04103641	      0.01000000	      0.12219965	      0.01000000	      0.11999718	      0.01000000	      0.11806512
